# File created by Blade
# Date/Time:  Tue Sep 23 19:06:47 2014
# Frame Rate: 120.000 fps
#------------------------------------------------------
:FULLY-SPECIFIED
:DEGREES
906
root -1.416188 32.359574 3.949736 36.866915 6.363106 -3.104585
Spine -24.334637 -0.361558 5.900334
Head 26.465975 -24.420081 4.305377
LeftShoulder -15.223359 49.048244 18.109688
LeftArm 54.331066 13.689048 -81.579233
LeftForeArm 89.906560 -0.000000 8.510394
LeftHand -13.558211 0.000000 60.544686
LeftHandThumb1 -26.253704 0.000000 33.147579
RightShoulder -15.157203 -49.638975 -10.492356
RightArm 51.526066 10.673688 91.807263
RightForeArm 35.217363 -0.000000 25.892075
RightHand 14.871744 -0.000000 -17.139959
RightHandThumb1 -24.326973 -0.000000 -32.862282
LeftUpLeg -38.806399 2.737911 9.552527
LeftLeg 19.118001 -0.000000 -0.000000
LeftFoot -10.699695 4.833762 -1.375478
LeftToeBase -6.365264 -0.000000 0.000000
RightUpLeg -43.609016 -9.814224 3.084853
RightLeg 13.100469 -0.000000 -0.000000
RightFoot -1.013144 -12.155002 2.178738
RightToeBase 3.347054 -0.000000 -0.000000
907
root -1.261391 32.355399 3.827611 37.068491 6.061924 -3.175684
Spine -24.186210 -0.623329 5.989083
Head 27.219774 -24.137299 4.175338
LeftShoulder -15.058926 49.095164 18.204948
LeftArm 54.732388 14.901270 -80.540538
LeftForeArm 88.679303 -0.000000 7.349264
LeftHand -12.575715 -0.000000 60.191093
LeftHandThumb1 -26.253704 0.000000 33.147579
RightShoulder -15.258125 -49.789405 -10.251624
RightArm 51.526561 11.111748 92.024283
RightForeArm 34.150556 -0.000000 27.201267
RightHand 14.529664 0.000000 -17.476406
RightHandThumb1 -24.326973 -0.000000 -32.862282
LeftUpLeg -39.186458 2.599128 9.344815
LeftLeg 19.246343 -0.000000 -0.000000
LeftFoot -10.938366 5.207720 -1.197827
LeftToeBase -6.096910 -0.000000 0.000000
RightUpLeg -43.758173 -9.811043 2.983549
RightLeg 12.390647 -0.000000 -0.000000
RightFoot -0.357530 -12.304621 2.026863
RightToeBase 3.480274 -0.000000 -0.000000
908
root -1.103118 32.354540 3.706943 37.211354 5.738861 -3.262672
Spine -23.982026 -0.869033 6.091509
Head 27.970620 -23.823068 4.037337
LeftShoulder -14.868697 49.129552 18.315382
LeftArm 55.148027 15.920959 -79.752415
LeftForeArm 87.765645 -0.000000 6.053860
LeftHand -11.627014 -0.000000 59.842306
LeftHandThumb1 -26.253704 0.000000 33.147579
RightShoulder -15.290226 -50.020055 -10.054105
RightArm 51.580267 11.540342 92.222321
RightForeArm 32.943475 -0.000000 28.477356
RightHand 14.193782 0.000000 -18.018589
RightHandThumb1 -24.326973 -0.000000 -32.862282
LeftUpLeg -39.497850 2.530520 9.117168
LeftLeg 19.360689 -0.000000 -0.000000
LeftFoot -11.148972 5.439672 -1.094267
LeftToeBase -5.861353 -0.000000 0.000000
RightUpLeg -43.821915 -9.889640 2.951124
RightLeg 11.588526 -0.000000 -0.000000
RightFoot 0.341296 -12.302636 1.928569
RightToeBase 3.767849 -0.000000 -0.000000
909
root -0.943823 32.357708 3.585783 37.359043 5.436518 -3.344612
Spine -23.767955 -1.133090 6.217057
Head 28.661105 -23.511996 3.868422
LeftShoulder -14.671290 49.080034 18.433937
LeftArm 55.499083 16.838238 -79.058868
LeftForeArm 86.959360 -0.000000 4.745371
LeftHand -10.657638 -0.000000 59.539112
LeftHandThumb1 -26.253704 0.000000 33.147579
RightShoulder -15.323008 -50.187693 -9.894256
RightArm 51.593170 11.905953 92.337862
RightForeArm 31.529219 -0.000000 29.656695
RightHand 13.904569 -0.000000 -18.666724
RightHandThumb1 -24.326973 -0.000000 -32.862282
LeftUpLeg -39.801056 2.428010 8.907574
LeftLeg 19.429163 -0.000000 -0.000000
LeftFoot -11.284435 5.682336 -0.931885
LeftToeBase -5.683647 -0.000000 0.000000
RightUpLeg -43.929204 -10.093947 3.026356
RightLeg 10.804804 -0.000000 -0.000000
RightFoot 1.149020 -12.277923 1.833062
RightToeBase 3.847969 -0.000000 -0.000000
910
root -0.787272 32.362586 3.467519 37.510104 5.109097 -3.415150
Spine -23.557388 -1.352136 6.288384
Head 29.268511 -23.190230 3.773523
LeftShoulder -14.445432 49.029082 18.608463
LeftArm 55.818166 17.672084 -78.417527
LeftForeArm 85.667243 -0.000000 3.595102
LeftHand -9.167018 -0.000000 59.016474
LeftHandThumb1 -26.253704 0.000000 33.147579
RightShoulder -15.344250 -50.340162 -9.696987
RightArm 51.277164 11.988234 91.757544
RightForeArm 30.808675 -0.000000 31.111419
RightHand 13.519196 -0.000000 -19.731677
RightHandThumb1 -24.326973 -0.000000 -32.862282
LeftUpLeg -40.071019 2.366423 8.661608
LeftLeg 19.436429 -0.000000 -0.000000
LeftFoot -11.511530 5.819654 -1.064528
LeftToeBase -5.103379 -0.000000 0.000000
RightUpLeg -44.006830 -10.302926 3.092227
RightLeg 9.966399 -0.000000 -0.000000
RightFoot 1.955479 -12.123293 1.652563
RightToeBase 4.134324 -0.000000 -0.000000
911
root -0.634760 32.370436 3.347681 37.695371 4.734228 -3.485215
Spine -23.370970 -1.532299 6.338771
Head 29.814968 -22.816693 3.671521
LeftShoulder -14.237619 48.969479 18.768604
LeftArm 56.038302 18.278231 -78.004150
LeftForeArm 84.244989 -0.000000 2.545852
LeftHand -7.163733 -0.000000 58.311030
LeftHandThumb1 -26.253704 0.000000 33.147579
RightShoulder -15.405459 -50.528559 -9.581670
RightArm 51.344370 12.329836 92.011880
RightForeArm 29.321658 -0.000000 32.078906
RightHand 13.176978 -0.000000 -20.527078
RightHandThumb1 -24.326973 -0.000000 -32.862282
LeftUpLeg -40.358437 2.404146 8.371225
LeftLeg 19.401764 -0.000000 -0.000000
LeftFoot -11.418704 6.024216 -0.608100
LeftToeBase -5.365386 -0.000000 0.000000
RightUpLeg -44.167568 -10.441815 3.127915
RightLeg 9.211343 -0.000000 -0.000000
RightFoot 2.853982 -12.051813 1.418738
RightToeBase 4.254381 -0.000000 -0.000000
912
root -0.484257 32.380057 3.229655 37.884892 4.329231 -3.575095
Spine -23.200765 -1.695159 6.407729
Head 30.338931 -22.396838 3.542338
LeftShoulder -14.000237 48.808695 18.961634
LeftArm 56.071611 18.828765 -77.687271
LeftForeArm 83.417658 -0.000000 1.646294
LeftHand -5.932052 0.000000 57.675058
LeftHandThumb1 -26.253704 0.000000 33.147579
RightShoulder -15.368153 -50.716332 -9.586767
RightArm 51.403721 12.712533 92.424199
RightForeArm 27.891137 -0.000000 32.981312
RightHand 12.943248 -0.000000 -20.415552
RightHandThumb1 -24.326973 -0.000000 -32.862282
LeftUpLeg -40.631980 2.464533 8.093207
LeftLeg 19.361565 -0.000000 -0.000000
LeftFoot -11.483170 6.137772 -0.539658
LeftToeBase -5.141712 -0.000000 0.000000
RightUpLeg -44.367950 -10.594993 3.205775
RightLeg 8.511688 -0.000000 -0.000000
RightFoot 3.709159 -11.824574 1.274254
RightToeBase 4.469595 -0.000000 -0.000000
913
root -0.336163 32.390077 3.111727 38.034034 3.894955 -3.636707
Spine -22.982915 -1.850133 6.412953
Head 30.806941 -21.984810 3.440378
LeftShoulder -13.794165 48.712170 19.147179
LeftArm 56.160501 19.338050 -77.305422
LeftForeArm 82.485502 0.000000 0.840703
LeftHand -4.683611 -0.000000 57.110654
LeftHandThumb1 -26.253704 0.000000 33.147579
RightShoulder -15.310334 -50.903543 -9.594805
RightArm 51.462669 13.023699 92.668130
RightForeArm 26.532777 0.000000 33.764463
RightHand 12.687743 -0.000000 -20.769131
RightHandThumb1 -24.326973 -0.000000 -32.862282
LeftUpLeg -40.850627 2.496664 7.794362
LeftLeg 19.301109 -0.000000 -0.000000
LeftFoot -11.502078 6.292858 -0.475107
LeftToeBase -4.972780 -0.000000 0.000000
RightUpLeg -44.566657 -10.758318 3.269281
RightLeg 7.877750 -0.000000 -0.000000
RightFoot 4.507059 -11.637612 1.205091
RightToeBase 4.818930 -0.000000 -0.000000
914
root -0.191635 32.401232 2.995089 38.205167 3.419543 -3.694732
Spine -22.795772 -1.909372 6.355606
Head 31.243511 -21.625640 3.348207
LeftShoulder -13.569447 48.667209 19.331065
LeftArm 56.252672 19.616458 -77.109272
LeftForeArm 81.984582 -0.000000 0.035217
LeftHand -3.698902 0.000000 56.776635
LeftHandThumb1 -26.253704 0.000000 33.147579
RightShoulder -15.361145 -50.992233 -9.552929
RightArm 51.406729 13.229473 92.748497
RightForeArm 25.582153 0.000000 34.455197
RightHand 12.457203 -0.000000 -21.076334
RightHandThumb1 -24.326973 -0.000000 -32.862282
LeftUpLeg -41.084928 2.579700 7.460079
LeftLeg 19.246625 -0.000000 -0.000000
LeftFoot -11.637560 6.343981 -0.636262
LeftToeBase -4.391812 -0.000000 0.000000
RightUpLeg -44.849440 -10.836382 3.259982
RightLeg 7.416759 -0.000000 -0.000000
RightFoot 5.145039 -11.418663 1.322222
RightToeBase 5.333214 -0.000000 -0.000000
